<svg xmlns="http://www.w3.org/2000/svg" width="1916.32" height="754.563" viewBox="0 0 1916.32 754.563">
  <g id="Group_20" data-name="Group 20" transform="translate(-6.851 1.014)">
    <path id="Path_12" data-name="Path 12" d="M3.4,203.522C33.255,153.087,137.025-5.756,259.055,20.621c0,0,89.856,9.855,144.639,166.379,25.508,72.465,50.435,145.8,82.32,215.944,38.261,84.639,99.711,143.77,198.553,115.363,60.291-17.1,112.175-55.653,155.944-99.131,42.029-41.74,69.566-101.45,120.291-133.914,42.9-27.537,105.218-30.435,144.639,3.478" transform="translate(5.506 32.662)" fill="none" stroke="#f78c6c" stroke-linecap="round" stroke-miterlimit="10" stroke-width="3" stroke-dasharray="14 13"/>
    <path id="Path_14" data-name="Path 14" d="M21.4,658.271C85.749,522.038,159.083,387.254,246.04,264.064,310.678,172.179,384.592,91.019,495.9,59.134c102.61-29.276,185.8,10.435,241.162,99.131,97.1,155.364,112.465,408.7,351.888,399.135,154.494-6.087,226.669-145.509,349.279-213.625,108.407-60.29,222.611-40,303.771,52.464,43.479,48.7,139.422,199.422,139.422,199.422" transform="translate(39.68 93.28)" fill="none" stroke="#757575" stroke-linecap="round" stroke-miterlimit="10" stroke-width="3" stroke-dasharray="14 13"/>
    <path id="Path_15" data-name="Path 15" d="M185.592,262.271c62.9-5.217,125.219,10.435,180,41.16,82.32,46.377,141.161,122.61,226.379,166.668,80,41.45,176.813,62.03,260,16.522,94.2-51.3,131.6-167.248,169.567-260.293C1067.341,114.444,1139.8-6.717,1277.488.819c115.654,6.377,220.292,92.175,288.7,179.712" transform="translate(351.412)" fill="none" stroke="#757575" stroke-linecap="round" stroke-miterlimit="10" stroke-width="3" stroke-dasharray="14 13"/>
  </g>
</svg>
