<?xml version="1.0" encoding="UTF-8"?>
<svg version="1.1" viewBox="0 0 24 24" xmlns="http://www.w3.org/2000/svg" xmlns:xlink="http://www.w3.org/1999/xlink">
    <!--Generated by IJSVG (https://github.com/iconjar/IJSVG)-->
    <g fill="#FFF">
        <path d="M14.821,22.5c-1.782,0 -4.159,-1.465 -4.155,-1.463l2.03,-7.048c0.617,0.494 2.048,1.431 4.401,1.431c1.081,0 2.359,-0.2 3.845,-0.731l-1.957,6.84c-1.686,0.695 -3.036,0.971 -4.164,0.971"></path>
        <path d="M8.371,20.286c-1.127,-0.75 -2.322,-1.416 -4.045,-1.416c-1.044,0 -2.288,0.249 -3.826,0.868l2.036,-7.06c1.614,-0.659 3.121,-0.93 4.033,-0.93c1.62,0 2.894,0.718 3.909,1.349c-0.269,0.923 -1.689,5.772 -2.107,7.189Z"></path>
        <path d="M12.932,3.086v0.005c-0.418,1.432 -1.656,5.675 -2.072,7.087c-1.089,-0.722 -2.258,-1.38 -3.91,-1.398c-1.346,0 -2.688,0.405 -3.947,0.919l2.006,-7.043c1.52,-0.621 2.757,-0.87 3.789,-0.889c1.311,0.001 2.339,0.245 4.134,1.319Z"></path>
        <path d="M17.558,12.502c-1.774,0 -3.246,-0.611 -4.378,-1.368c-0.006,-0.004 -0.016,-0.01 -0.021,-0.016l2.058,-7.118c0.649,0.506 2.12,1.456 4.35,1.456c1.123,0 2.436,-0.24 3.934,-0.895l-2.029,6.989c-0.006,0.003 -0.01,0.005 -0.01,0.005c-0.002,0.002 -0.002,0.005 -0.002,0.009c-1.426,0.671 -2.73,0.938 -3.902,0.938"></path>
    </g>
    <path fill="none" d="M0,0h24v24h-24Z"></path>
</svg>